
        <svg xmlns="http://www.w3.org/2000/svg" xmlns:xlink="http://www.w3.org/1999/xlink" version="1.1" width="3159.8407688768257" height="617.6869247668541" viewBox="0 0 3159.8407688768257 617.6869247668541">
			
			<g transform="scale(7.992038443841273) translate(10, 10)">
				<defs id="SvgjsDefs1299"/><g id="SvgjsG1300" featureKey="nRdZyp-0" transform="matrix(0.6365309108102986,0,0,0.6365309108102986,-3.5136503120103937,-3.182654554051493)" fill="#000"><circle xmlns="http://www.w3.org/2000/svg" cx="42.125" cy="19.337" r="9.916"/><circle xmlns="http://www.w3.org/2000/svg" cx="27.438" cy="63.042" r="4.958"/><circle xmlns="http://www.w3.org/2000/svg" cx="62.284" cy="87.752" r="4.958"/><circle xmlns="http://www.w3.org/2000/svg" cx="46.204" cy="33.938" r="4.462"/><circle xmlns="http://www.w3.org/2000/svg" cx="64.86" cy="59.99" r="5.356"/><path xmlns="http://www.w3.org/2000/svg" d="M74.019,19.736c2.416,0,4.487-1.398,5.505-3.418c-3.036-2.71-6.439-5.016-10.13-6.832c-0.959,1.089-1.561,2.503-1.561,4.068  C67.833,16.97,70.603,19.736,74.019,19.736z"/><circle xmlns="http://www.w3.org/2000/svg" cx="62.615" cy="30.244" r="11.237"/><path xmlns="http://www.w3.org/2000/svg" d="M93.643,59.136c-0.273,1.32-0.608,2.617-0.996,3.893C93.2,61.829,93.546,60.519,93.643,59.136z"/><path xmlns="http://www.w3.org/2000/svg" d="M82.447,47.098c-6.207,0-11.237,5.031-11.237,11.239c0,6.205,5.03,11.238,11.237,11.238c4.528,0,8.422-2.687,10.199-6.547  c0.388-1.275,0.723-2.572,0.996-3.893c0.019-0.265,0.041-0.528,0.041-0.799C93.684,52.129,88.652,47.098,82.447,47.098z"/><path xmlns="http://www.w3.org/2000/svg" d="M17.748,33.007c0-3.719-2.476-6.828-5.855-7.863c-2.983,4.52-5.172,9.608-6.373,15.069c1.181,0.652,2.52,1.057,3.965,1.057  C14.047,41.27,17.748,37.571,17.748,33.007z"/><circle xmlns="http://www.w3.org/2000/svg" cx="71.619" cy="76.304" r="8.263"/><path xmlns="http://www.w3.org/2000/svg" d="M58.373,17.711c4.198,0,7.6-3.403,7.6-7.602c0-0.8-0.157-1.554-0.386-2.278C61.562,6.293,57.26,5.321,52.776,5  c-1.233,1.353-2.005,3.135-2.005,5.109C50.771,14.308,54.173,17.711,58.373,17.711z"/><path xmlns="http://www.w3.org/2000/svg" d="M13.703,69.904c4.197,0,7.6-3.403,7.6-7.602c0-4.196-3.403-7.602-7.6-7.602c-4.12,0-7.454,3.283-7.58,7.371  c0.479,1.719,1.053,3.397,1.726,5.027C9.243,68.799,11.333,69.904,13.703,69.904z"/><circle xmlns="http://www.w3.org/2000/svg" cx="23.286" cy="52.574" r="4.481"/><path xmlns="http://www.w3.org/2000/svg" d="M39.335,88.411c0-2.474-2.007-4.48-4.48-4.48c-2.476,0-4.482,2.007-4.482,4.48c0,1.048,0.375,2,0.979,2.763  c1.395,0.615,2.826,1.164,4.292,1.638C37.739,92.438,39.335,90.616,39.335,88.411z"/><circle xmlns="http://www.w3.org/2000/svg" cx="13.015" cy="47.207" r="5.802"/><circle xmlns="http://www.w3.org/2000/svg" cx="26.313" cy="30.271" r="7.603"/><path xmlns="http://www.w3.org/2000/svg" d="M62.137,71.661c-0.032-8.119-6.643-14.678-14.762-14.646c-8.122,0.032-14.68,6.64-14.646,14.76  c0.03,8.123,6.64,14.679,14.76,14.647C55.61,86.391,62.169,79.783,62.137,71.661z"/><path xmlns="http://www.w3.org/2000/svg" d="M81.061,17.76c-3.272,3.114-5.316,7.506-5.298,12.381c0.038,9.399,7.686,16.989,17.085,16.952  c0.55-0.001,1.096-0.036,1.633-0.088C93.744,35.57,88.751,25.299,81.061,17.76z"/><path xmlns="http://www.w3.org/2000/svg" d="M70.2,42.307c-2.465,0.01-4.453,2.015-4.444,4.48c0.01,2.462,2.015,4.453,4.48,4.445c2.463-0.011,4.451-2.018,4.442-4.483  C74.671,44.286,72.664,42.298,70.2,42.307z"/><circle xmlns="http://www.w3.org/2000/svg" cx="23.67" cy="42.116" r="2.643"/><circle xmlns="http://www.w3.org/2000/svg" cx="37.26" cy="46.034" r="9.454"/><path xmlns="http://www.w3.org/2000/svg" d="M30.479,11.066c-0.002-0.646-0.07-1.278-0.196-1.886c-5.257,2.486-9.955,5.957-13.856,10.178  c1.373,0.766,2.952,1.206,4.635,1.199C26.284,20.536,30.5,16.285,30.479,11.066z"/><path xmlns="http://www.w3.org/2000/svg" d="M31.842,78.716c-0.022-5.22-4.271-9.435-9.491-9.416c-4.465,0.019-8.185,3.132-9.16,7.292  c3.252,4.425,7.294,8.228,11.917,11.214C29.015,86.632,31.857,83.005,31.842,78.716z"/><circle xmlns="http://www.w3.org/2000/svg" cx="55.339" cy="48.772" r="7.603"/><path xmlns="http://www.w3.org/2000/svg" d="M48.537,87.771c-3.811,0.016-6.958,2.778-7.604,6.402C43.715,94.709,46.585,95,49.522,95c2.28,0,4.52-0.173,6.71-0.5  C55.717,90.694,52.482,87.757,48.537,87.771z"/></g><g id="SvgjsG1301" featureKey="Q4qmbg-0" transform="matrix(2.466723408353695,0,0,2.466723408353695,80.81597389316659,-9.35633183628502)" fill="#000"><path d="M3.48 13.24 c0 1.18 5 0.62 5 3.74 c0 2.04 -1.8 3.18 -4.04 3.18 c-1.42 0 -2.84 -0.7 -3.96 -1.82 l1.94 -1.94 c0.56 0.68 1.36 1.2 2.02 1.26 s1.22 -0.22 1.32 -0.52 c0.24 -0.76 -1.14 -0.8 -1.56 -0.92 c-1.58 -0.48 -3.42 -1.14 -3.42 -3.1 c0 -2.34 2.44 -3.14 3.66 -3.14 c1.4 0 2.82 0.64 3.96 1.8 l-1.92 1.92 c-0.52 -0.68 -1.42 -1.22 -2.04 -1.22 c-0.32 0 -0.96 0.12 -0.96 0.76 z M14.387708333333332 12.42 c-1.22 0 -2.24 1.08 -2.24 2.66 c0 1.56 1.02 2.64 2.24 2.64 c1.24 0 2.26 -1.08 2.26 -2.64 c0 -1.58 -1.02 -2.66 -2.26 -2.66 z M14.387708333333332 9.98 c2.9 0 5.22 2.18 5.22 5.1 s-2.32 5.08 -5.22 5.08 c-2.88 0 -5.2 -2.16 -5.2 -5.08 s2.32 -5.1 5.2 -5.1 z M27.715416666666663 16.46 l2.08 1.88 c-1.12 1.24 -2.58 1.82 -4.14 1.82 c-2.88 0 -5.2 -2.16 -5.2 -5.08 s2.32 -5.1 5.2 -5.1 c1.56 0 3.02 0.58 4.14 1.82 l-2.08 1.88 c-0.44 -1.02 -1.4 -1.26 -2.06 -1.26 c-1.22 0 -2.24 1.08 -2.24 2.66 c0 1.56 1.02 2.64 2.24 2.64 c0.66 0 1.64 -0.18 2.06 -1.26 z M37.963125 16.46 l2.08 1.88 c-1.12 1.24 -2.58 1.82 -4.14 1.82 c-2.88 0 -5.2 -2.16 -5.2 -5.08 s2.32 -5.1 5.2 -5.1 c1.56 0 3.02 0.58 4.14 1.82 l-2.08 1.88 c-0.44 -1.02 -1.4 -1.26 -2.06 -1.26 c-1.22 0 -2.24 1.08 -2.24 2.66 c0 1.56 1.02 2.64 2.24 2.64 c0.66 0 1.64 -0.18 2.06 -1.26 z M51.13083333333333 15.08 l0 0.66 l-7.04 0 c0 1.16 1.18 1.98 2.16 1.98 c0.96 0 1.84 -0.38 2.3 -1.22 l1.98 1.82 c-0.8 1.08 -2.02 1.84 -4.28 1.84 c-3.24 0 -5.22 -2.16 -5.22 -5.08 s1.92 -5.1 5.04 -5.1 s5.06 2.14 5.06 5.1 z M44.150833333333324 13.86 l3.88 0 c-0.16 -0.94 -0.84 -1.44 -1.96 -1.44 c-1.08 0 -1.74 0.58 -1.92 1.44 z M58.81854166666666 10.26 l-0.4 2.22 c-0.74 -0.32 -0.88 -0.26 -1.22 -0.26 c-1.2 0 -1.9 0.64 -1.9 2.22 l0 5.56 l-2.96 0 l0 -9.88 l2.96 0 l0 0.88 c0.38 -0.68 1.42 -1.02 2.08 -1.02 c0.62 0 0.98 0.02 1.44 0.28 z M61.70624999999999 13.24 c0 1.18 5 0.62 5 3.74 c0 2.04 -1.8 3.18 -4.04 3.18 c-1.42 0 -2.84 -0.7 -3.96 -1.82 l1.94 -1.94 c0.56 0.68 1.36 1.2 2.02 1.26 s1.22 -0.22 1.32 -0.52 c0.24 -0.76 -1.14 -0.8 -1.56 -0.92 c-1.58 -0.48 -3.42 -1.14 -3.42 -3.1 c0 -2.34 2.44 -3.14 3.66 -3.14 c1.4 0 2.82 0.64 3.96 1.8 l-1.92 1.92 c-0.52 -0.68 -1.42 -1.22 -2.04 -1.22 c-0.32 0 -0.96 0.12 -0.96 0.76 z M70.21395833333334 13.04 l-2.2 -1.26 c1.1 -1.24 2.58 -1.82 4.12 -1.82 c2.96 0 4.16 1.62 4.16 3.14 l0 6.9 l-2.96 0 l0 -0.7 c-0.46 0.48 -1.28 0.84 -2.2 0.84 c-2.7 0 -3.74 -1.2 -3.74 -3.04 c0 -2.08 1.68 -3.48 4.4 -3.48 l1.54 0 c0 -0.74 -0.56 -1.22 -1.4 -1.22 c-0.86 0 -1.28 0.16 -1.72 0.64 z M73.33395833333333 16.740000000000002 l0 -0.88 l-1.74 0 c-0.78 0 -1.36 0.54 -1.24 1.3 c0.08 0.54 0.56 0.76 1.24 0.76 c1.3 0 1.74 -0.74 1.74 -1.18 z M84.76166666666667 10.12 l2.96 0 l0 9.58 c0 2.92 -2.14 5.28 -5.22 5.28 c-1.7 0 -2.98 -0.78 -4.1 -2.02 l2.1 -1.9 c0.62 0.92 1.18 1.48 2 1.48 c1.4 0 2.24 -1.54 2.24 -3.22 c-0.36 0.48 -1.42 0.82 -2.04 0.82 c-2.88 0 -5 -2.16 -5 -5.08 s2.12 -5.1 5 -5.1 c0.68 0 1.74 0.36 2.06 0.82 l0 -0.66 z M82.90166666666667 17.92 c1.34 0 2.26 -1.54 2.26 -2.86 c0 -1.34 -0.9 -2.86 -2.26 -2.86 c-1.22 0 -2.24 1.28 -2.24 2.86 c0 1.56 1.02 2.86 2.24 2.86 z M99.24937499999999 15.08 l0 0.66 l-7.04 0 c0 1.16 1.18 1.98 2.16 1.98 c0.96 0 1.84 -0.38 2.3 -1.22 l1.98 1.82 c-0.8 1.08 -2.02 1.84 -4.28 1.84 c-3.24 0 -5.22 -2.16 -5.22 -5.08 s1.92 -5.1 5.04 -5.1 s5.06 2.14 5.06 5.1 z M92.269375 13.86 l3.88 0 c-0.16 -0.94 -0.84 -1.44 -1.96 -1.44 c-1.08 0 -1.74 0.58 -1.92 1.44 z M103.85708333333332 18.38 c0 1.02 -0.84 1.8 -1.9 1.8 s-1.88 -0.78 -1.88 -1.8 c0 -0.96 0.82 -1.76 1.88 -1.76 s1.9 0.8 1.9 1.76 z M107.86479166666666 10.12 l0 9.88 l-2.96 0 l0 -9.88 l2.96 0 z M107.94479166666666 7.279999999999999 c0 0.84 -0.68 1.5 -1.58 1.5 c-0.86 0 -1.56 -0.66 -1.56 -1.5 c0 -0.82 0.7 -1.46 1.56 -1.46 c0.9 0 1.58 0.64 1.58 1.46 z M114.19249999999998 12.42 c-1.22 0 -2.24 1.08 -2.24 2.66 c0 1.56 1.02 2.64 2.24 2.64 c1.24 0 2.26 -1.08 2.26 -2.64 c0 -1.58 -1.02 -2.66 -2.26 -2.66 z M114.19249999999998 9.98 c2.9 0 5.22 2.18 5.22 5.1 s-2.32 5.08 -5.22 5.08 c-2.88 0 -5.2 -2.16 -5.2 -5.08 s2.32 -5.1 5.2 -5.1 z"/></g>
			</g>
		</svg>
	